<?xml version="1.0" encoding="UTF-8" standalone="no"?>
<!-- Created with Inkscape (http://www.inkscape.org/) -->

<svg
   xmlns:dc="http://purl.org/dc/elements/1.1/"
   xmlns:cc="http://creativecommons.org/ns#"
   xmlns:rdf="http://www.w3.org/1999/02/22-rdf-syntax-ns#"
   xmlns:svg="http://www.w3.org/2000/svg"
   xmlns="http://www.w3.org/2000/svg"
   xmlns:sodipodi="http://sodipodi.sourceforge.net/DTD/sodipodi-0.dtd"
   xmlns:inkscape="http://www.inkscape.org/namespaces/inkscape"
   version="1.1"
   id="svg2"
   width="1280"
   height="719"
   viewBox="0 0 1280 719"
   sodipodi:docname="bra7  front back.svg"
   inkscape:version="0.92.3 (2405546, 2018-03-11)"
   inkscape:export-filename="C:\Users\Akeela\Pictures\IMG-20190124-WA0007.png"
   inkscape:export-xdpi="96"
   inkscape:export-ydpi="96">
  <metadata
     id="metadata8">
    <rdf:RDF>
      <cc:Work
         rdf:about="">
        <dc:format>image/svg+xml</dc:format>
        <dc:type
           rdf:resource="http://purl.org/dc/dcmitype/StillImage" />
        <dc:title></dc:title>
      </cc:Work>
    </rdf:RDF>
  </metadata>
  <defs
     id="defs6">
    <clipPath
       id="SVGID_2_">
      <path
         inkscape:connector-curvature="0"
         d="m 122.412,202.308 c 0,0 61,61.001 77,154.001 0,0 25,7 52,-1 0,0 18,-117.001 75,-151.001 0,0 -110,-12.999 -204,-2 z"
         id="use7" />
    </clipPath>
    <path
       inkscape:connector-curvature="0"
       d="m 122.412,202.308 c 0,0 61,61.001 77,154.001 0,0 25,7 52,-1 0,0 18,-117.001 75,-151.001 0,0 -110,-12.999 -204,-2 z"
       id="path746" />
    <clipPath
       id="SVGID_4_-3">
      <path
         inkscape:connector-curvature="0"
         d="m 473.201,203.324 c 0,0 73.671,95.994 89.502,152.998 0,0 29.502,7.662 52,-1 0,0 37.832,-113.332 87.832,-151.332 0,0 -177.334,-5.332 -229.334,-0.666 z"
         id="use25-9" />
    </clipPath>
    <path
       inkscape:connector-curvature="0"
       d="m 473.201,203.324 c 0,0 73.671,95.994 89.502,152.998 0,0 29.502,7.662 52,-1 0,0 37.832,-113.332 87.832,-151.332 0,0 -177.334,-5.332 -229.334,-0.666 z"
       id="path710" />
  </defs>
  <sodipodi:namedview
     pagecolor="#ffffff"
     bordercolor="#666666"
     borderopacity="1"
     objecttolerance="10"
     gridtolerance="10"
     guidetolerance="10"
     inkscape:pageopacity="0"
     inkscape:pageshadow="2"
     inkscape:window-width="1366"
     inkscape:window-height="705"
     id="namedview4"
     showgrid="false"
     inkscape:zoom="0.31377863"
     inkscape:cx="256.79793"
     inkscape:cy="138.84624"
     inkscape:window-x="-8"
     inkscape:window-y="-8"
     inkscape:window-maximized="1"
     inkscape:current-layer="svg2"
     inkscape:snap-to-guides="false" />
  <g
     id="layer1-8"
     inkscape:label="Layer 1"
     transform="matrix(-1.2484158,0,0,0,578.36731,671.58198)">
    <g
       transform="matrix(3.4434783,0,0,4.9316654,-686.10913,4.2951247)"
       id="g2027">
      <path
         inkscape:connector-curvature="0"
         style="fill:#fbbb97;stroke:#000000;stroke-width:0.52916664;stroke-miterlimit:10"
         stroke-miterlimit="10"
         d="m 202.35017,9.4988981 c 0,0 44.71246,-2.5963562 54.81372,0 l 1.42108,8.2737849 c 0,0 -10.93655,2.877344 -26.08739,16.547307 h -5.58323 c 0,0 -17.15294,-13.974234 -25.88419,-16.424275 z"
         id="path12" />
      <g
         transform="matrix(0.26458333,0,0,0.26458333,115.34061,-62.119577)"
         id="g18">
        <path
           style="fill:#fbbb97"
           inkscape:connector-curvature="0"
           d="m 328.751,274.83 c 0,0 113.688,-9.666 206.817,0 l 4.222,20.654 c 0,0 -64.895,15.012 -101.278,68.012 h -12.238 c 0,0 -44.827,-52.258 -100.639,-66.961 z"
           id="path14" />
        <path
           inkscape:connector-curvature="0"
           d="m 328.751,274.83 c 8.599,-0.711 17.206,-1.313 25.819,-1.822 4.305,-0.281 8.614,-0.484 12.922,-0.729 l 12.928,-0.617 c 4.309,-0.203 8.621,-0.336 12.933,-0.508 4.311,-0.176 8.624,-0.254 12.937,-0.377 l 6.471,-0.168 6.471,-0.098 c 4.314,-0.051 8.627,-0.168 12.941,-0.16 l 12.944,-0.041 12.943,0.121 6.472,0.078 6.47,0.17 c 4.313,0.129 8.628,0.189 12.939,0.377 l 12.933,0.57 c 2.156,0.08 4.311,0.203 6.463,0.355 l 6.459,0.418 c 4.307,0.281 8.615,0.527 12.911,0.953 l 12.896,1.15 0.237,0.021 0.05,0.238 4.241,20.65 0.067,0.328 -0.329,0.08 c -2.498,0.615 -4.987,1.352 -7.453,2.127 -2.465,0.783 -4.918,1.609 -7.348,2.5 -2.436,0.877 -4.846,1.82 -7.246,2.787 -2.396,0.979 -4.773,2 -7.139,3.051 -2.358,1.068 -4.702,2.164 -7.023,3.311 -2.314,1.156 -4.623,2.328 -6.893,3.572 -1.143,0.607 -2.275,1.232 -3.395,1.883 -1.119,0.648 -2.26,1.264 -3.359,1.945 l -3.324,2.004 -3.272,2.09 c -1.1,0.682 -2.153,1.436 -3.229,2.152 -1.074,0.723 -2.146,1.447 -3.189,2.213 l -3.146,2.273 -3.082,2.359 c -1.04,0.77 -2.021,1.615 -3.029,2.426 -1,0.822 -2.02,1.619 -2.982,2.484 l -2.926,2.551 c -0.961,0.865 -1.895,1.762 -2.844,2.641 l -1.419,1.324 -1.372,1.373 -2.737,2.75 c -1.736,1.918 -3.563,3.756 -5.207,5.756 l -2.515,2.955 -2.399,3.051 -1.194,1.529 -1.135,1.574 -2.268,3.15 -0.088,0.121 h -0.143 l -12.238,-0.012 h -0.12 l -0.081,-0.094 c -3.359,-3.818 -6.908,-7.488 -10.539,-11.063 -3.636,-3.572 -7.367,-7.049 -11.189,-10.42 -1.912,-1.686 -3.839,-3.354 -5.802,-4.98 -1.948,-1.643 -3.938,-3.236 -5.933,-4.822 l -3.016,-2.352 -3.055,-2.297 c -2.057,-1.506 -4.105,-3.023 -6.21,-4.461 -2.083,-1.469 -4.212,-2.869 -6.341,-4.271 -2.154,-1.361 -4.289,-2.756 -6.49,-4.039 -2.178,-1.326 -4.398,-2.576 -6.62,-3.824 -1.107,-0.631 -2.247,-1.201 -3.37,-1.805 -1.123,-0.602 -2.25,-1.195 -3.4,-1.746 l -3.432,-1.686 -3.48,-1.582 c -1.152,-0.543 -2.336,-1.018 -3.512,-1.508 -1.182,-0.477 -2.343,-1.008 -3.543,-1.438 l -3.58,-1.342 c -1.193,-0.451 -2.414,-0.818 -3.62,-1.23 -2.405,-0.852 -4.878,-1.48 -7.321,-2.209 l -0.055,-0.016 0.008,-0.055 z m 0,0 -3.054,21.713 -0.046,-0.07 c 2.449,0.717 4.93,1.332 7.342,2.17 1.21,0.406 2.435,0.768 3.632,1.211 l 3.594,1.322 c 1.203,0.424 2.369,0.949 3.555,1.42 1.182,0.484 2.369,0.951 3.527,1.49 l 3.494,1.564 3.447,1.668 c 1.154,0.545 2.287,1.135 3.416,1.729 1.128,0.6 2.273,1.164 3.387,1.789 2.232,1.238 4.467,2.475 6.648,3.803 2.209,1.281 4.35,2.674 6.51,4.033 2.135,1.4 4.271,2.799 6.36,4.266 2.112,1.436 4.167,2.953 6.229,4.457 l 3.065,2.295 3.024,2.35 c 2.002,1.584 3.997,3.176 5.952,4.818 1.97,1.623 3.903,3.291 5.821,4.977 3.835,3.369 7.581,6.844 11.229,10.416 3.646,3.574 7.203,7.236 10.592,11.072 l -0.203,-0.092 12.238,-0.012 -0.229,0.121 2.271,-3.168 1.136,-1.582 1.196,-1.539 2.403,-3.066 2.519,-2.975 c 1.647,-2.01 3.478,-3.859 5.217,-5.787 l 2.743,-2.768 1.374,-1.381 1.421,-1.334 c 0.951,-0.883 1.888,-1.785 2.851,-2.656 l 2.933,-2.564 c 0.965,-0.871 1.986,-1.674 2.988,-2.502 1.01,-0.814 1.994,-1.664 3.035,-2.441 l 3.09,-2.373 3.154,-2.287 c 1.045,-0.771 2.119,-1.502 3.195,-2.229 1.079,-0.721 2.135,-1.48 3.237,-2.166 l 3.28,-2.104 3.331,-2.02 c 1.103,-0.686 2.246,-1.305 3.368,-1.957 1.121,-0.654 2.258,-1.283 3.403,-1.896 2.274,-1.254 4.589,-2.434 6.909,-3.598 2.326,-1.156 4.677,-2.262 7.041,-3.338 l 3.566,-1.568 3.598,-1.492 c 2.412,-0.965 4.832,-1.908 7.277,-2.783 2.441,-0.889 4.905,-1.713 7.383,-2.494 2.482,-0.775 4.969,-1.508 7.508,-2.127 l -0.262,0.408 -4.201,-20.658 0.287,0.26 -12.883,-1.174 c -4.289,-0.434 -8.596,-0.689 -12.897,-0.979 l -6.454,-0.43 c -2.15,-0.156 -4.303,-0.285 -6.457,-0.369 l -12.924,-0.596 c -4.309,-0.193 -8.622,-0.264 -12.932,-0.4 l -6.467,-0.184 -6.469,-0.09 -12.938,-0.146 -12.938,0.014 c -4.314,-0.016 -8.626,0.094 -12.939,0.135 l -6.469,0.086 -6.469,0.156 c -4.311,0.111 -8.624,0.186 -12.935,0.348 -4.311,0.146 -8.623,0.254 -12.933,0.434 l -12.93,0.543 c -4.307,0.219 -8.617,0.398 -12.924,0.654 -8.611,0.46 -17.22,1.013 -25.823,1.673 z"
           id="path16" />
      </g>
      <text
         y="41.59206"
         x="221.32018"
         style="font-size:3.17499995px;font-family:MyriadPro-Regular;stroke-width:0.26458332"
         font-size="12"
         id="text20">BACK VIEW</text>
    </g>
  </g>
  <g
     id="layer1-1"
     inkscape:label="Layer 1"
     transform="matrix(1.1932896,0,0,1.1932896,122.22914,103.31351)">
    <g
       transform="matrix(1.3646561,0,0,1.4644004,4.7692449,-105.83699)"
       id="g2477">
      <path
         inkscape:connector-curvature="0"
         style="fill:#d49b9b;stroke:#000000;stroke-width:0.79374999;stroke-miterlimit:10"
         stroke-miterlimit="10"
         d="M 135.82042,76.876116 74.25875,149.10737 c 0,0 1.5875,1.85208 2.116667,3.96875 L 140.8475,76.876116 Z"
         id="path20" />
      <path
         inkscape:connector-curvature="0"
         style="fill:#d49b9b;stroke:#000000;stroke-width:0.79374999;stroke-miterlimit:10"
         stroke-miterlimit="10"
         d="m 11.287918,77.140699 60.324999,71.702081 c 0,0 -1.5875,1.5875 -2.116667,3.57188 L 6.260835,77.140699 Z"
         id="path22" />
      <path
         inkscape:connector-curvature="0"
         style="fill:#f8d9d9;stroke:#000000;stroke-width:0.79374999;stroke-miterlimit:10"
         stroke-miterlimit="10"
         d="M 70.554583,153.3407 H 75.0525 c 0,0 32.54375,28.83958 73.55417,28.83958 l -2.4675,28.31042 c 0,0 -76.378337,-3.43959 -144.9054184,0 l -2.6458333,-29.10417 c 0,0 41.0104147,3.175 71.9666647,-28.04583 z"
         id="path24" />
      <path
         inkscape:connector-curvature="0"
         style="fill:#d49b9b;stroke:#000000;stroke-width:0.79374999;stroke-miterlimit:10"
         stroke-miterlimit="10"
         d="m 68.437917,191.70528 h 11.290829 c 0,0 5.642504,9.78958 8.288337,13.75833 0,0 -9.789583,-10.31875 -28.839583,-0.52916 z"
         id="path26" />
      <path
         inkscape:connector-curvature="0"
         style="fill:#f2b6b6;stroke:#000000;stroke-width:0.79374999;stroke-miterlimit:10"
         stroke-miterlimit="10"
         d="m -1.9412484,174.77195 3.175,35.71875 c 0,0 10.3187494,5.02708 19.8437494,-0.52917 0,0 -24.0770827,-36.5125 -23.0187494,-35.18958 z"
         id="path28" />
      <path
         inkscape:connector-curvature="0"
         style="fill:#d49b9b;stroke:#000000;stroke-width:0.79374999;stroke-miterlimit:10"
         stroke-miterlimit="10"
         d="m -2.2058317,175.03653 c 0,0 0.2637896,32.27917 31.8941967,37.04167 0,0 29.785468,5.82083 38.220385,-20.10834 0,0 -20.296188,21.43125 -38.220385,14.81667 2.64e-4,0 -19.505612,-1.05833 -31.8941967,-31.75 z"
         id="path30" />
      <path
         inkscape:connector-curvature="0"
         style="fill:#f2b6b6;stroke:#000000;stroke-width:0.79374999;stroke-miterlimit:10"
         stroke-miterlimit="10"
         d="m 11.023335,134.2907 c 0,0 8.73125,15.34583 26.193748,20.90208 17.4625,5.55625 30.691667,19.57917 30.691667,36.77708 0,0 -6.614583,20.90209 -37.835417,18.25625 0,0 -52.122915,-8.73125 -24.0770814,-75.93541 z"
         id="path32" />
      <rect
         style="fill:#d49b9b;stroke:#000000;stroke-width:0.79374999;stroke-miterlimit:10"
         x="5.9962516"
         y="76.876114"
         stroke-miterlimit="10"
         width="5.0270834"
         height="57.414585"
         id="rect34" />
      <path
         inkscape:connector-curvature="0"
         style="fill:#f2b6b6;stroke:#000000;stroke-width:0.79374999;stroke-miterlimit:10"
         stroke-miterlimit="10"
         d="m 149.31417,174.77195 -3.175,35.71875 c 0,0 -10.31875,5.02708 -19.84375,-0.52917 0,0 24.07708,-36.5125 23.01875,-35.18958 z"
         id="path36" />
      <path
         inkscape:connector-curvature="0"
         style="fill:#d49b9b;stroke:#000000;stroke-width:0.79374999;stroke-miterlimit:10"
         stroke-miterlimit="10"
         d="m 149.31417,175.03653 c 0,0 -0.26353,32.27917 -31.8942,37.04167 0,0 -29.785739,5.82083 -38.220391,-20.10834 0,0 20.296448,21.43125 38.220391,14.81667 0,0 19.50561,-1.05833 31.8942,-31.75 z"
         id="path38" />
      <path
         inkscape:connector-curvature="0"
         style="fill:#f2b6b6;stroke:#000000;stroke-width:0.79374999;stroke-miterlimit:10"
         stroke-miterlimit="10"
         d="m 137.14333,134.2907 c 0,0 -8.73125,15.34583 -26.19375,20.90208 -17.462501,5.55625 -30.691668,19.57917 -30.691668,36.77708 0,0 6.614584,20.90209 37.835418,18.25625 0,0 52.12292,-8.73125 24.07709,-75.93541 z"
         id="path40" />
      <rect
         style="fill:#d49b9b;stroke:#000000;stroke-width:0.79374999;stroke-miterlimit:10"
         x="136.08501"
         y="76.876114"
         stroke-miterlimit="10"
         width="5.0270834"
         height="57.414585"
         id="rect42" />
      <g
         transform="matrix(0.26458333,0,0,0.26458333,-6.7900025,47.771949)"
         id="g48">
        <path
           style="fill:#f2b6b6"
           inkscape:connector-curvature="0"
           d="m 139.326,614 c 0,0 -13,-18 -13,-39"
           id="path44" />
        <path
           inkscape:connector-curvature="0"
           d="m 138.103,614.867 c 0,0 -0.091,-0.141 -0.26,-0.404 -0.178,-0.275 -0.421,-0.672 -0.719,-1.172 -0.598,-1.004 -1.421,-2.445 -2.319,-4.216 -0.458,-0.881 -0.927,-1.848 -1.404,-2.878 -0.5,-1.019 -0.941,-2.134 -1.444,-3.263 -0.453,-1.151 -0.942,-2.331 -1.377,-3.553 -0.419,-1.229 -0.888,-2.458 -1.245,-3.728 -0.391,-1.257 -0.763,-2.518 -1.056,-3.779 -0.156,-0.627 -0.311,-1.25 -0.464,-1.864 -0.123,-0.622 -0.243,-1.236 -0.362,-1.841 -0.117,-0.604 -0.231,-1.197 -0.344,-1.777 -0.081,-0.587 -0.159,-1.161 -0.236,-1.72 -0.159,-1.114 -0.308,-2.167 -0.353,-3.15 -0.069,-0.978 -0.133,-1.874 -0.189,-2.669 -0.001,-0.796 -0.002,-1.49 -0.003,-2.062 -0.001,-1.141 -0.002,-1.792 -0.002,-1.792 0,0 0.048,0.65 0.131,1.787 0.042,0.567 0.092,1.257 0.151,2.047 0.112,0.783 0.239,1.668 0.378,2.633 0.113,0.967 0.337,1.998 0.573,3.087 0.115,0.544 0.233,1.104 0.354,1.675 0.152,0.564 0.307,1.141 0.465,1.728 0.159,0.584 0.321,1.179 0.485,1.78 0.194,0.594 0.39,1.193 0.588,1.799 0.376,1.215 0.83,2.425 1.301,3.626 0.437,1.214 0.984,2.386 1.478,3.554 0.51,1.161 1.071,2.278 1.592,3.366 0.569,1.065 1.074,2.115 1.632,3.07 0.535,0.968 1.056,1.871 1.562,2.691 0.992,1.649 1.884,2.979 2.52,3.891 0.32,0.458 0.571,0.808 0.742,1.034 0.178,0.238 0.273,0.365 0.273,0.365 z"
           id="path46" />
      </g>
      <g
         transform="matrix(0.26458333,0,0,0.26458333,-6.7900025,47.771949)"
         id="g54">
        <path
           style="fill:#f2b6b6"
           inkscape:connector-curvature="0"
           d="m 145.326,613 c 0,0 4,-11 6,-37"
           id="path50" />
        <path
           inkscape:connector-curvature="0"
           d="m 143.907,612.514 c 0,0 0.219,-0.556 0.526,-1.472 0.167,-0.453 0.342,-1.045 0.548,-1.718 0.202,-0.674 0.452,-1.427 0.666,-2.272 0.226,-0.842 0.47,-1.754 0.729,-2.719 0.248,-0.969 0.471,-2.003 0.723,-3.067 0.24,-1.066 0.524,-2.162 0.73,-3.295 0.223,-1.13 0.449,-2.276 0.676,-3.424 0.234,-1.147 0.454,-2.298 0.627,-3.438 0.187,-1.138 0.371,-2.258 0.548,-3.342 0.173,-1.086 0.362,-2.133 0.502,-3.131 0.132,-0.999 0.257,-1.944 0.373,-2.816 0.462,-3.492 0.77,-5.82 0.77,-5.82 0,0 -0.122,2.347 -0.304,5.866 -0.045,0.881 -0.095,1.835 -0.147,2.845 -0.06,1.009 -0.165,2.069 -0.251,3.169 -0.091,1.1 -0.186,2.236 -0.282,3.391 -0.083,1.157 -0.21,2.328 -0.354,3.498 -0.135,1.172 -0.271,2.344 -0.404,3.497 -0.116,1.156 -0.314,2.284 -0.47,3.382 -0.169,1.096 -0.311,2.158 -0.484,3.162 -0.185,1.003 -0.359,1.951 -0.521,2.826 -0.149,0.877 -0.345,1.677 -0.497,2.388 -0.157,0.711 -0.288,1.329 -0.433,1.854 -0.266,1.057 -0.435,1.608 -0.435,1.608 z"
           id="path52" />
      </g>
      <g
         transform="matrix(0.26458333,0,0,0.26458333,-6.7900025,47.771949)"
         id="g60">
        <path
           style="fill:#f2b6b6"
           inkscape:connector-curvature="0"
           d="m 122.326,609 c 0,0 -31,-15 -41,-51"
           id="path56" />
        <path
           inkscape:connector-curvature="0"
           d="m 121.655,610.342 c 0,0 -0.236,-0.13 -0.679,-0.373 -0.462,-0.252 -1.103,-0.633 -1.902,-1.122 -0.802,-0.492 -1.754,-1.112 -2.833,-1.842 -1.065,-0.749 -2.277,-1.576 -3.534,-2.563 -1.29,-0.945 -2.608,-2.066 -4.013,-3.234 -0.716,-0.568 -1.381,-1.235 -2.098,-1.871 -0.699,-0.656 -1.452,-1.284 -2.146,-1.999 -1.388,-1.43 -2.891,-2.834 -4.239,-4.434 -0.692,-0.78 -1.389,-1.567 -2.089,-2.358 -0.652,-0.829 -1.308,-1.662 -1.963,-2.495 -1.352,-1.632 -2.513,-3.407 -3.689,-5.125 -0.293,-0.429 -0.586,-0.856 -0.877,-1.282 -0.285,-0.43 -0.527,-0.884 -0.79,-1.321 -0.515,-0.879 -1.024,-1.748 -1.524,-2.604 -0.25,-0.427 -0.498,-0.85 -0.743,-1.27 -0.237,-0.424 -0.432,-0.866 -0.646,-1.291 -0.417,-0.855 -0.827,-1.692 -1.225,-2.507 -0.384,-0.82 -0.814,-1.592 -1.127,-2.385 -0.312,-0.793 -0.613,-1.559 -0.903,-2.294 -0.556,-1.479 -1.157,-2.798 -1.526,-4.026 -0.368,-1.228 -0.688,-2.298 -0.953,-3.18 -0.527,-1.76 -0.829,-2.766 -0.829,-2.766 0,0 0.346,0.991 0.952,2.727 0.302,0.866 0.669,1.918 1.09,3.124 0.421,1.205 1.08,2.495 1.697,3.938 0.319,0.717 0.652,1.463 0.996,2.235 0.346,0.771 0.808,1.52 1.225,2.314 0.43,0.789 0.871,1.599 1.322,2.427 0.231,0.41 0.441,0.838 0.695,1.247 0.261,0.403 0.525,0.812 0.792,1.223 0.531,0.821 1.071,1.656 1.618,2.501 0.278,0.419 0.536,0.855 0.836,1.267 0.306,0.406 0.613,0.815 0.921,1.226 1.235,1.64 2.45,3.331 3.852,4.876 0.679,0.788 1.357,1.576 2.033,2.361 0.721,0.744 1.439,1.484 2.152,2.22 1.387,1.506 2.924,2.815 4.338,4.149 0.708,0.668 1.472,1.249 2.182,1.858 0.728,0.589 1.402,1.209 2.125,1.731 1.42,1.076 2.749,2.109 4.042,2.97 1.262,0.904 2.471,1.651 3.531,2.328 1.071,0.656 2.015,1.212 2.799,1.647 0.788,0.435 1.404,0.765 1.815,0.965 0.43,0.212 0.659,0.324 0.659,0.324 z"
           id="path58" />
      </g>
      <g
         transform="matrix(0.26458333,0,0,0.26458333,-6.7900025,47.771949)"
         id="g66">
        <path
           style="fill:#f2b6b6"
           inkscape:connector-curvature="0"
           d="m 129.326,611 c 0,0 -30,-25 -28,-73"
           id="path62" />
        <path
           inkscape:connector-curvature="0"
           d="m 128.348,612.137 c 0,0 -0.227,-0.192 -0.683,-0.634 -0.467,-0.431 -1.088,-1.067 -1.873,-1.878 -0.763,-0.83 -1.703,-1.823 -2.699,-3.027 -0.498,-0.602 -1.028,-1.241 -1.586,-1.916 -0.528,-0.696 -1.083,-1.429 -1.663,-2.193 -0.289,-0.383 -0.583,-0.773 -0.883,-1.172 -0.28,-0.412 -0.566,-0.831 -0.857,-1.259 -0.579,-0.854 -1.178,-1.736 -1.794,-2.645 -0.567,-0.938 -1.149,-1.901 -1.745,-2.886 -0.297,-0.492 -0.598,-0.99 -0.901,-1.492 -0.274,-0.519 -0.551,-1.042 -0.83,-1.57 -0.558,-1.055 -1.125,-2.128 -1.698,-3.214 -0.53,-1.107 -1.025,-2.249 -1.545,-3.387 -1.098,-2.252 -1.914,-4.666 -2.818,-7.037 -0.479,-1.177 -0.824,-2.4 -1.181,-3.613 -0.359,-1.211 -0.718,-2.417 -1.073,-3.613 -0.649,-2.408 -1.091,-4.83 -1.623,-7.141 -0.143,-0.576 -0.237,-1.156 -0.307,-1.736 -0.081,-0.577 -0.161,-1.148 -0.24,-1.714 -0.158,-1.13 -0.312,-2.236 -0.462,-3.313 -0.075,-0.537 -0.149,-1.067 -0.222,-1.59 -0.056,-0.524 -0.069,-1.045 -0.105,-1.555 -0.061,-1.02 -0.12,-2.005 -0.177,-2.95 -0.057,-0.945 -0.111,-1.851 -0.163,-2.712 -0.022,-0.431 -0.059,-0.85 -0.067,-1.258 0.008,-0.408 0.016,-0.805 0.024,-1.189 0.031,-1.537 0.059,-2.877 0.081,-3.98 0.045,-2.203 0.07,-3.463 0.07,-3.463 0,0 0.021,1.26 0.059,3.465 0.019,1.101 0.041,2.438 0.067,3.971 0.006,0.383 0.013,0.778 0.02,1.186 0.023,0.406 0.076,0.823 0.114,1.251 0.083,0.855 0.171,1.756 0.262,2.694 0.092,0.938 0.187,1.915 0.285,2.926 0.055,0.505 0.087,1.021 0.162,1.539 0.092,0.517 0.185,1.04 0.28,1.572 0.189,1.062 0.383,2.152 0.581,3.268 0.099,0.557 0.199,1.12 0.3,1.688 0.09,0.57 0.205,1.142 0.367,1.708 0.614,2.27 1.137,4.643 1.867,6.996 0.395,1.167 0.792,2.343 1.191,3.523 0.396,1.182 0.779,2.372 1.295,3.514 0.978,2.301 1.864,4.638 3.025,6.809 0.552,1.098 1.078,2.196 1.636,3.262 0.602,1.041 1.195,2.07 1.78,3.083 0.292,0.505 0.581,1.007 0.867,1.504 0.314,0.479 0.626,0.954 0.935,1.424 0.616,0.938 1.219,1.857 1.805,2.751 0.633,0.861 1.248,1.699 1.843,2.51 0.298,0.404 0.591,0.802 0.878,1.191 0.306,0.376 0.606,0.744 0.9,1.105 0.589,0.72 1.153,1.41 1.69,2.066 0.564,0.632 1.099,1.23 1.602,1.793 1.003,1.126 1.941,2.045 2.698,2.81 0.777,0.745 1.388,1.326 1.804,1.681 0.404,0.367 0.665,0.574 0.665,0.574 z"
           id="path64" />
      </g>
      <g
         transform="matrix(0.26458333,0,0,0.26458333,-6.7900025,47.771949)"
         id="g72">
        <path
           style="fill:#f2b6b6"
           inkscape:connector-curvature="0"
           d="m 464.326,615 c 0,0 13,-18 13,-39"
           id="path68" />
        <path
           inkscape:connector-curvature="0"
           d="m 463.103,614.133 c 0,0 0.095,-0.127 0.273,-0.365 0.17,-0.227 0.421,-0.576 0.742,-1.034 0.636,-0.912 1.528,-2.241 2.52,-3.891 0.505,-0.82 1.026,-1.724 1.562,-2.691 0.558,-0.955 1.063,-2.005 1.632,-3.07 0.521,-1.088 1.082,-2.205 1.592,-3.366 0.494,-1.168 1.042,-2.34 1.478,-3.554 0.472,-1.201 0.925,-2.411 1.301,-3.626 0.198,-0.605 0.394,-1.205 0.588,-1.799 0.164,-0.602 0.326,-1.196 0.485,-1.78 0.158,-0.587 0.313,-1.163 0.465,-1.728 0.121,-0.571 0.239,-1.131 0.354,-1.675 0.236,-1.089 0.459,-2.12 0.573,-3.087 0.139,-0.965 0.266,-1.85 0.378,-2.633 0.059,-0.79 0.109,-1.479 0.151,-2.047 0.083,-1.137 0.131,-1.787 0.131,-1.787 0,0 -10e-4,0.651 -0.002,1.792 -0.001,0.571 -0.002,1.266 -0.003,2.062 -0.056,0.795 -0.12,1.691 -0.189,2.669 -0.044,0.983 -0.194,2.036 -0.353,3.15 -0.077,0.559 -0.155,1.133 -0.236,1.72 -0.112,0.58 -0.227,1.174 -0.344,1.777 -0.119,0.604 -0.239,1.219 -0.362,1.841 -0.153,0.614 -0.308,1.237 -0.464,1.864 -0.293,1.262 -0.665,2.522 -1.056,3.779 -0.357,1.27 -0.826,2.499 -1.245,3.728 -0.435,1.222 -0.924,2.401 -1.377,3.553 -0.502,1.129 -0.943,2.244 -1.444,3.263 -0.477,1.03 -0.945,1.997 -1.404,2.878 -0.898,1.771 -1.721,3.212 -2.319,4.216 -0.297,0.5 -0.541,0.896 -0.719,1.172 -0.169,0.264 -0.26,0.404 -0.26,0.404 z"
           id="path70" />
      </g>
      <g
         transform="matrix(0.26458333,0,0,0.26458333,-6.7900025,47.771949)"
         id="g78">
        <path
           style="fill:#f2b6b6"
           inkscape:connector-curvature="0"
           d="m 458.326,614 c 0,0 -4,-11 -6,-37"
           id="path74" />
        <path
           inkscape:connector-curvature="0"
           d="m 456.907,614.486 c 0,0 -0.169,-0.552 -0.435,-1.608 -0.146,-0.525 -0.276,-1.144 -0.433,-1.854 -0.152,-0.711 -0.348,-1.511 -0.497,-2.388 -0.161,-0.875 -0.336,-1.823 -0.521,-2.826 -0.173,-1.004 -0.315,-2.066 -0.484,-3.162 -0.156,-1.098 -0.354,-2.226 -0.47,-3.382 -0.133,-1.153 -0.269,-2.325 -0.404,-3.497 -0.143,-1.17 -0.271,-2.341 -0.354,-3.498 -0.096,-1.154 -0.19,-2.291 -0.282,-3.391 -0.086,-1.1 -0.191,-2.16 -0.251,-3.169 -0.052,-1.01 -0.102,-1.964 -0.147,-2.845 -0.182,-3.52 -0.304,-5.866 -0.304,-5.866 0,0 0.308,2.328 0.77,5.82 0.116,0.872 0.241,1.817 0.373,2.816 0.14,0.998 0.329,2.045 0.502,3.131 0.178,1.084 0.362,2.204 0.548,3.342 0.173,1.14 0.393,2.29 0.627,3.438 0.227,1.147 0.453,2.294 0.676,3.424 0.206,1.133 0.49,2.229 0.73,3.295 0.252,1.064 0.476,2.099 0.723,3.067 0.259,0.965 0.503,1.877 0.729,2.719 0.214,0.846 0.464,1.599 0.666,2.272 0.206,0.673 0.381,1.265 0.548,1.718 0.308,0.916 0.527,1.472 0.526,1.472 z"
           id="path76" />
      </g>
      <g
         transform="matrix(0.26458333,0,0,0.26458333,-6.7900025,47.771949)"
         id="g84">
        <path
           style="fill:#f2b6b6"
           inkscape:connector-curvature="0"
           d="m 481.326,610 c 0,0 31,-15 41,-51"
           id="path80" />
        <path
           inkscape:connector-curvature="0"
           d="m 480.655,608.658 c 0,0 0.229,-0.112 0.659,-0.324 0.412,-0.2 1.027,-0.53 1.815,-0.965 0.784,-0.436 1.728,-0.991 2.799,-1.647 1.06,-0.677 2.269,-1.424 3.531,-2.328 1.293,-0.86 2.622,-1.894 4.042,-2.97 0.724,-0.522 1.398,-1.143 2.125,-1.731 0.709,-0.609 1.474,-1.19 2.182,-1.858 1.414,-1.334 2.951,-2.644 4.338,-4.149 0.712,-0.735 1.431,-1.476 2.152,-2.22 0.676,-0.785 1.354,-1.573 2.033,-2.361 1.402,-1.545 2.617,-3.236 3.852,-4.876 0.309,-0.41 0.616,-0.819 0.921,-1.226 0.3,-0.411 0.557,-0.848 0.836,-1.267 0.547,-0.845 1.087,-1.68 1.618,-2.501 0.266,-0.411 0.53,-0.819 0.792,-1.223 0.253,-0.409 0.464,-0.837 0.695,-1.247 0.451,-0.828 0.893,-1.638 1.322,-2.427 0.417,-0.795 0.879,-1.543 1.225,-2.314 0.344,-0.772 0.677,-1.519 0.996,-2.235 0.617,-1.442 1.276,-2.732 1.697,-3.938 0.421,-1.206 0.788,-2.258 1.09,-3.124 0.605,-1.735 0.952,-2.727 0.952,-2.727 0,0 -0.301,1.006 -0.829,2.766 -0.264,0.882 -0.585,1.952 -0.953,3.18 -0.369,1.229 -0.97,2.548 -1.526,4.026 -0.29,0.735 -0.591,1.501 -0.903,2.294 -0.313,0.793 -0.743,1.564 -1.127,2.385 -0.398,0.814 -0.807,1.651 -1.225,2.507 -0.214,0.425 -0.409,0.867 -0.646,1.291 -0.246,0.42 -0.493,0.843 -0.743,1.27 -0.5,0.855 -1.009,1.725 -1.524,2.604 -0.263,0.438 -0.505,0.892 -0.79,1.321 -0.291,0.426 -0.583,0.854 -0.877,1.282 -1.177,1.718 -2.337,3.493 -3.689,5.125 -0.655,0.833 -1.311,1.666 -1.963,2.495 -0.7,0.791 -1.397,1.578 -2.089,2.358 -1.348,1.6 -2.852,3.004 -4.239,4.434 -0.694,0.715 -1.446,1.343 -2.146,1.999 -0.717,0.636 -1.382,1.303 -2.098,1.871 -1.405,1.168 -2.724,2.289 -4.013,3.234 -1.257,0.987 -2.469,1.814 -3.534,2.563 -1.079,0.729 -2.032,1.35 -2.833,1.842 -0.8,0.489 -1.44,0.87 -1.902,1.122 -0.443,0.243 -0.679,0.373 -0.679,0.373 z"
           id="path82" />
      </g>
      <g
         transform="matrix(0.26458333,0,0,0.26458333,-6.7900025,47.771949)"
         id="g90">
        <path
           style="fill:#f2b6b6"
           inkscape:connector-curvature="0"
           d="m 474.326,612 c 0,0 30,-25 28,-73"
           id="path86" />
        <path
           inkscape:connector-curvature="0"
           d="m 473.348,610.863 c 0,0 0.261,-0.207 0.665,-0.574 0.417,-0.354 1.027,-0.936 1.804,-1.681 0.756,-0.765 1.694,-1.684 2.698,-2.81 0.503,-0.563 1.038,-1.161 1.602,-1.793 0.537,-0.656 1.102,-1.347 1.69,-2.066 0.294,-0.361 0.594,-0.729 0.9,-1.105 0.287,-0.39 0.58,-0.787 0.878,-1.191 0.595,-0.811 1.21,-1.648 1.843,-2.51 0.586,-0.894 1.189,-1.813 1.805,-2.751 0.308,-0.47 0.62,-0.944 0.935,-1.424 0.287,-0.497 0.576,-0.999 0.867,-1.504 0.584,-1.013 1.178,-2.042 1.78,-3.083 0.558,-1.065 1.084,-2.164 1.637,-3.262 1.161,-2.171 2.047,-4.508 3.025,-6.809 0.516,-1.142 0.899,-2.332 1.295,-3.514 0.399,-1.181 0.797,-2.356 1.191,-3.523 0.73,-2.354 1.253,-4.727 1.867,-6.996 0.163,-0.566 0.277,-1.138 0.367,-1.708 0.101,-0.568 0.201,-1.132 0.3,-1.688 0.198,-1.115 0.392,-2.206 0.581,-3.268 0.095,-0.532 0.188,-1.056 0.28,-1.572 0.075,-0.519 0.107,-1.034 0.162,-1.539 0.099,-1.011 0.193,-1.988 0.285,-2.926 0.091,-0.938 0.179,-1.839 0.262,-2.694 0.038,-0.428 0.091,-0.845 0.114,-1.251 0.007,-0.407 0.014,-0.803 0.02,-1.186 0.026,-1.533 0.048,-2.87 0.067,-3.971 0.037,-2.205 0.059,-3.465 0.059,-3.465 0,0 0.025,1.26 0.07,3.463 0.022,1.104 0.05,2.443 0.081,3.98 0.008,0.385 0.016,0.781 0.024,1.189 -0.008,0.408 -0.045,0.827 -0.067,1.258 -0.052,0.861 -0.106,1.767 -0.163,2.712 -0.057,0.945 -0.116,1.931 -0.177,2.95 -0.036,0.51 -0.05,1.03 -0.105,1.555 -0.073,0.522 -0.147,1.053 -0.222,1.59 -0.15,1.076 -0.305,2.183 -0.462,3.313 -0.079,0.565 -0.159,1.137 -0.24,1.714 -0.07,0.58 -0.164,1.16 -0.307,1.736 -0.532,2.311 -0.974,4.732 -1.623,7.141 -0.355,1.196 -0.714,2.402 -1.074,3.613 -0.357,1.213 -0.702,2.437 -1.181,3.613 -0.905,2.371 -1.721,4.785 -2.818,7.037 -0.521,1.138 -1.016,2.279 -1.545,3.387 -0.574,1.086 -1.141,2.159 -1.698,3.214 -0.279,0.528 -0.557,1.052 -0.831,1.57 -0.303,0.502 -0.604,1 -0.901,1.492 -0.595,0.984 -1.178,1.948 -1.745,2.886 -0.616,0.908 -1.215,1.791 -1.794,2.645 -0.291,0.428 -0.577,0.847 -0.857,1.259 -0.3,0.398 -0.595,0.789 -0.883,1.172 -0.58,0.765 -1.135,1.497 -1.663,2.193 -0.559,0.675 -1.088,1.314 -1.586,1.916 -0.996,1.204 -1.936,2.197 -2.699,3.027 -0.785,0.811 -1.405,1.447 -1.873,1.878 -0.457,0.441 -0.683,0.634 -0.683,0.634 z"
           id="path88" />
      </g>
      <ellipse
         style="fill:#f2b6b6;stroke:#000000;stroke-width:0.79374999;stroke-miterlimit:10"
         stroke-miterlimit="10"
         cx="72.935837"
         cy="152.15007"
         rx="3.7041667"
         ry="3.3072917"
         id="ellipse92" />
      <rect
         style="fill:none;stroke-width:0.26458332"
         x="53.534996"
         y="221.33862"
         width="94.191666"
         height="17.991667"
         id="rect104" />
      <text
         y="228.10126"
         x="53.534996"
         style="font-size:9.52499962px;font-family:MyriadPro-Regular;stroke-width:0.26458332"
         font-size="36"
         id="text106">Front view</text>
    </g>
  </g>
  <g
     id="layer1-3"
     inkscape:label="Layer 1"
     transform="matrix(1.2217993,0,0,1.2217993,477.65485,85.764587)">
    <g
       transform="matrix(1.3420647,0,0,1.4535174,-72.592404,-67.164227)"
       id="g1639">
      <rect
         style="fill:#d49b9b;stroke:#000000;stroke-width:0.79374999;stroke-miterlimit:10"
         x="66.245651"
         y="61.775967"
         stroke-miterlimit="10"
         width="5.0270834"
         height="57.414585"
         id="rect2" />
      <rect
         style="fill:#d49b9b;stroke:#000000;stroke-width:0.79374999;stroke-miterlimit:10"
         x="196.33441"
         y="61.775967"
         stroke-miterlimit="10"
         width="5.0270834"
         height="57.414585"
         id="rect4" />
      <path
         inkscape:connector-curvature="0"
         style="fill:#f2b6b6;stroke:#000000;stroke-width:0.79374999;stroke-miterlimit:10"
         stroke-miterlimit="10"
         d="m 58.308157,159.6718 3.175,35.71875 c 0,0 10.31875,5.02708 19.84375,-0.52917 0,0 -24.077083,-36.5125 -23.01875,-35.18958 z"
         id="path6" />
      <path
         inkscape:connector-curvature="0"
         style="fill:#f2b6b6;stroke:#000000;stroke-width:0.79374999;stroke-miterlimit:10"
         stroke-miterlimit="10"
         d="m 209.56357,159.6718 -3.175,35.71875 c 0,0 -10.31875,5.02708 -19.84375,-0.52917 0,0 24.07708,-36.5125 23.01875,-35.18958 z"
         id="path8" />
      <path
         inkscape:connector-curvature="0"
         style="fill:#d49b9b;stroke:#000000;stroke-width:0.79374999;stroke-miterlimit:10"
         stroke-miterlimit="10"
         d="m 128.68732,176.60513 h 11.29083 c 0,0 5.64251,9.78958 8.28834,13.75833 0,0 -9.78958,-10.31875 -28.83958,-0.52916 z"
         id="path10" />
      <path
         inkscape:connector-curvature="0"
         style="fill:#d49b9b;stroke:#000000;stroke-width:0.79374999;stroke-miterlimit:10"
         stroke-miterlimit="10"
         d="m 58.043574,159.93638 c 0,0 0.263525,32.27917 31.894197,37.04167 0,0 29.785729,5.82083 38.220389,-20.10834 0,0 -20.29646,21.43125 -38.220389,14.81667 0,0 -19.505612,-1.05833 -31.894197,-31.75 z"
         id="path12-7" />
      <path
         inkscape:connector-curvature="0"
         style="fill:#f8d9d9;stroke:#000000;stroke-width:0.79374999;stroke-miterlimit:10"
         stroke-miterlimit="10"
         d="m 71.272741,119.19055 c 0,0 8.73125,15.34583 26.193748,20.90208 17.462501,5.55625 30.691671,19.57917 30.691671,36.77708 0,0 -6.61459,20.90209 -37.835421,18.25625 0,0 -52.122915,-8.73125 -24.077082,-75.93541 z"
         id="path14-4" />
      <path
         inkscape:connector-curvature="0"
         style="fill:#d49b9b;stroke:#000000;stroke-width:0.79374999;stroke-miterlimit:10"
         stroke-miterlimit="10"
         d="m 209.56357,159.93638 c 0,0 -0.26353,32.27917 -31.8942,37.04167 0,0 -29.78573,5.82083 -38.22039,-20.10834 0,0 20.29645,21.43125 38.22039,14.81667 0,0 19.50561,-1.05833 31.8942,-31.75 z"
         id="path16-5" />
      <path
         inkscape:connector-curvature="0"
         style="fill:#f8d9d9;stroke:#000000;stroke-width:0.79374999;stroke-miterlimit:10"
         stroke-miterlimit="10"
         d="m 196.3344,119.19055 c 0,0 -8.73125,15.34583 -26.19375,20.90208 -17.4625,5.55625 -30.69167,19.57917 -30.69167,36.77708 0,0 6.61459,20.90209 37.83542,18.25625 0,0 52.12292,-8.73125 24.07708,-75.93541 z"
         id="path18" />
      <path
         inkscape:connector-curvature="0"
         style="fill:#d49b9b;stroke:#000000;stroke-width:0.79374999;stroke-miterlimit:10"
         stroke-miterlimit="10"
         d="m 196.06982,61.775965 -61.56166,72.231245 c 0,0 1.5875,1.85209 2.11666,3.96875 L 201.0969,61.775965 Z"
         id="path94" />
      <path
         inkscape:connector-curvature="0"
         style="fill:#d49b9b;stroke:#000000;stroke-width:0.79374999;stroke-miterlimit:10"
         stroke-miterlimit="10"
         d="m 71.537324,62.040548 60.324996,71.702082 c 0,0 -1.5875,1.5875 -2.11666,3.57188 L 66.510241,62.040548 Z"
         id="path96" />
      <path
         inkscape:connector-curvature="0"
         style="fill:#f2b6b6;stroke:#000000;stroke-width:0.79374999;stroke-miterlimit:10"
         stroke-miterlimit="10"
         d="m 130.80399,138.24055 h 4.49792 c 0,0 32.54374,28.83958 73.55416,28.83958 l -2.4675,28.31042 c 0,0 -76.37833,-3.43959 -144.905413,0 l -2.645833,-29.10417 c 0,0 41.010415,3.175 71.966666,-28.04583 z"
         id="path98" />
      <ellipse
         style="fill:#f2b6b6;stroke:#000000;stroke-width:0.79374999;stroke-miterlimit:10"
         stroke-miterlimit="10"
         cx="133.18524"
         cy="137.04993"
         rx="3.7041667"
         ry="3.3072917"
         id="ellipse100" />
      <line
         style="fill:#f2b6b6;stroke:#000000;stroke-width:0.79374999;stroke-miterlimit:10"
         stroke-miterlimit="10"
         x1="61.13232"
         y1="192.21555"
         x2="206.12399"
         y2="191.68639"
         id="line102" />
      <rect
         style="fill:none;stroke-width:0.26458332"
         x="111.40315"
         y="207.56139"
         width="64.029167"
         height="10.583333"
         id="rect108" />
      <text
         y="214.32402"
         x="111.40315"
         style="font-size:9.52499962px;font-family:MyriadPro-Regular;stroke-width:0.26458332"
         font-size="36"
         id="text110">Back view</text>
    </g>
  </g>
</svg>
