<?xml version="1.0" encoding="UTF-8" standalone="no"?>
<!-- Created with Inkscape (http://www.inkscape.org/) -->

<svg
   xmlns:dc="http://purl.org/dc/elements/1.1/"
   xmlns:cc="http://creativecommons.org/ns#"
   xmlns:rdf="http://www.w3.org/1999/02/22-rdf-syntax-ns#"
   xmlns:svg="http://www.w3.org/2000/svg"
   xmlns="http://www.w3.org/2000/svg"
   xmlns:xlink="http://www.w3.org/1999/xlink"
   xmlns:sodipodi="http://sodipodi.sourceforge.net/DTD/sodipodi-0.dtd"
   xmlns:inkscape="http://www.inkscape.org/namespaces/inkscape"
   width="210mm"
   height="297mm"
   viewBox="0 0 210 297"
   version="1.1"
   id="svg8"
   inkscape:version="0.92.3 (2405546, 2018-03-11)"
   sodipodi:docname="pant3.svg">
  <defs
     id="defs2">
    <clipPath
       id="SVGID_2_">
      <use
         xlink:href="#SVGID_1_"
         overflow="visible"
         id="use7"
         style="overflow:visible"
         x="0"
         y="0"
         width="100%"
         height="100%" />
    </clipPath>
    <path
       id="SVGID_1_"
       d="m 122.412,202.308 c 0,0 61,61.001 77,154.001 0,0 25,7 52,-1 0,0 18,-117.001 75,-151.001 0,0 -110,-12.999 -204,-2 z"
       inkscape:connector-curvature="0" />
    <path
       inkscape:connector-curvature="0"
       d="m 122.412,202.308 c 0,0 61,61.001 77,154.001 0,0 25,7 52,-1 0,0 18,-117.001 75,-151.001 0,0 -110,-12.999 -204,-2 z"
       id="path2022" />
  </defs>
  <sodipodi:namedview
     id="base"
     pagecolor="#ffffff"
     bordercolor="#666666"
     borderopacity="1.0"
     inkscape:pageopacity="0.0"
     inkscape:pageshadow="2"
     inkscape:zoom="0.35"
     inkscape:cx="-87.142857"
     inkscape:cy="560"
     inkscape:document-units="mm"
     inkscape:current-layer="layer1"
     showgrid="false"
     inkscape:window-width="1366"
     inkscape:window-height="705"
     inkscape:window-x="-8"
     inkscape:window-y="-8"
     inkscape:window-maximized="1" />
  <metadata
     id="metadata5">
    <rdf:RDF>
      <cc:Work
         rdf:about="">
        <dc:format>image/svg+xml</dc:format>
        <dc:type
           rdf:resource="http://purl.org/dc/dcmitype/StillImage" />
        <dc:title></dc:title>
      </cc:Work>
    </rdf:RDF>
  </metadata>
  <g
     inkscape:label="Layer 1"
     inkscape:groupmode="layer"
     id="layer1">
    <g
       inkscape:label="Layer 1"
       id="layer1-1"
       transform="matrix(0.14286021,0,0,0.20712414,57.123051,76.557232)">
      <path
         stroke-miterlimit="10"
         d="m 68.952105,52.134699 c 0,0 131.599615,14.902524 292.556085,0 0,0 33.40605,68.551611 44.54142,213.602851 0,0 -50.61525,14.90252 -174.11645,2.9805 l -18.22149,-79.48013 -15.18456,76.49963 c 0,0 -89.08283,18.87652 -178.165635,-1.98702 0,0 18.221486,-157.96674 48.59063,-211.615831 z"
         id="path2-1"
         inkscape:connector-curvature="0"
         style="fill:#5ca17d;stroke:#000000;stroke-width:3.00857735;stroke-miterlimit:10" />
      <g
         id="g64"
         transform="matrix(1.0123048,0,0,0.99350157,-133.00169,-229.0193)">
        <path
           d="m 166.499,398.993 c 0,0 35,-13 60,-112"
           id="path4"
           inkscape:connector-curvature="0"
           style="fill:#5ca17d" />
        <g
           id="g62">
          <g
             id="g60">
            <g
               id="g22">
              <g
                 id="g20">
                <path
                   d="m 170.625,397.742 -0.973,-1.487 c 0,0 -0.204,0.155 -0.532,0.341 -0.325,0.194 -0.757,0.452 -1.19,0.711 -0.429,0.271 -0.879,0.458 -1.207,0.636 -0.329,0.169 -0.567,0.256 -0.567,0.256 l 0.706,1.63 c 0,0 0.251,-0.092 0.616,-0.278 0.358,-0.192 0.872,-0.412 1.322,-0.695 0.46,-0.274 0.919,-0.549 1.264,-0.755 0.35,-0.199 0.561,-0.359 0.561,-0.359 z"
                   id="path6"
                   inkscape:connector-curvature="0" />
                <path
                   d="m 175.637,393.923 -1.157,-1.348 c 0,0 -0.793,0.645 -1.586,1.29 -0.396,0.322 -0.793,0.644 -1.091,0.885 -0.313,0.219 -0.521,0.364 -0.521,0.364 l 1.045,1.437 c 0,0 0.217,-0.152 0.543,-0.381 0.308,-0.249 0.719,-0.581 1.129,-0.914 0.819,-0.666 1.638,-1.333 1.638,-1.333 z"
                   id="path8"
                   inkscape:connector-curvature="0" />
                <path
                   d="m 180.181,389.61 -1.273,-1.239 c 0.058,0.062 -2.947,2.854 -2.947,2.854 l 1.199,1.312 c 0,-10e-4 3.084,-2.869 3.021,-2.927 z"
                   id="path10"
                   inkscape:connector-curvature="0" />
                <path
                   d="m 184.364,384.969 -1.356,-1.148 c 0,0 -0.162,0.2 -0.405,0.5 -0.236,0.307 -0.569,0.698 -0.928,1.067 -0.699,0.753 -1.398,1.507 -1.398,1.507 l 1.302,1.208 c 0,0 0.714,-0.77 1.427,-1.539 0.366,-0.377 0.706,-0.776 0.946,-1.087 0.247,-0.304 0.412,-0.508 0.412,-0.508 z"
                   id="path12"
                   inkscape:connector-curvature="0" />
                <path
                   d="m 188.259,380.096 -1.421,-1.067 c 0,0 -0.149,0.21 -0.373,0.525 -0.243,0.301 -0.566,0.701 -0.89,1.102 -0.649,0.8 -1.298,1.6 -1.298,1.6 l 1.378,1.121 c 0,0 0.66,-0.814 1.32,-1.627 0.329,-0.408 0.658,-0.815 0.904,-1.121 0.228,-0.32 0.38,-0.533 0.38,-0.533 z"
                   id="path14"
                   inkscape:connector-curvature="0" />
                <polygon
                   points="188.008,377.381 189.445,378.426 191.869,375.016 190.398,374.019 "
                   id="polygon16" />
                <polygon
                   points="191.518,372.339 193.003,373.315 195.213,369.77 193.703,368.834 "
                   id="polygon18" />
              </g>
            </g>
            <g
               id="g40">
              <g
                 id="g38">
                <path
                   d="m 198.395,364.425 -1.544,-0.878 c 0,0 -0.496,0.907 -0.992,1.814 -0.543,0.879 -1.085,1.757 -1.085,1.757 l 1.523,0.916 c 0,0 0.548,-0.889 1.097,-1.778 0.5,-0.916 1.001,-1.831 1.001,-1.831 z"
                   id="path24"
                   inkscape:connector-curvature="0" />
                <polygon
                   points="197.821,361.771 199.375,362.633 201.378,358.971 199.806,358.144 "
                   id="polygon26" />
                <polygon
                   points="200.772,356.367 202.354,357.177 204.157,353.416 202.562,352.635 "
                   id="polygon28" />
                <polygon
                   points="203.437,350.808 205.04,351.575 206.843,347.814 205.226,347.077 "
                   id="polygon30" />
                <polygon
                   points="206.068,345.236 207.691,345.959 209.303,342.116 207.669,341.417 "
                   id="polygon32" />
                <polygon
                   points="208.454,339.547 210.092,340.233 211.704,336.39 210.055,335.729 "
                   id="polygon34" />
                <polygon
                   points="210.838,333.861 212.492,334.51 213.925,330.599 212.263,329.971 "
                   id="polygon36" />
              </g>
            </g>
            <g
               id="g58">
              <g
                 id="g56">
                <polygon
                   points="212.959,328.066 214.625,328.684 216.055,324.771 214.381,324.174 "
                   id="polygon42" />
                <path
                   d="m 218.115,318.92 -1.685,-0.566 c 0,0 -0.296,0.994 -0.642,1.97 -0.355,0.973 -0.711,1.946 -0.711,1.946 l 1.677,0.585 c 0,0 0.357,-0.978 0.715,-1.956 0.347,-0.981 0.646,-1.979 0.646,-1.979 z"
                   id="path44"
                   inkscape:connector-curvature="0" />
                <polygon
                   points="217.042,316.421 218.729,316.979 219.987,313.009 218.294,312.47 "
                   id="polygon46" />
                <polygon
                   points="218.907,310.535 220.603,311.066 221.86,307.097 220.159,306.584 "
                   id="polygon48" />
                <path
                   d="m 223.584,301.143 -1.708,-0.488 c 0,0 -0.273,1 -0.546,2 -0.136,0.5 -0.272,1 -0.375,1.375 -0.097,0.376 -0.184,0.621 -0.184,0.621 l 1.704,0.503 c 0,0 0.087,-0.246 0.185,-0.624 0.103,-0.376 0.24,-0.878 0.376,-1.38 0.275,-1.003 0.548,-2.007 0.548,-2.007 z"
                   id="path50"
                   inkscape:connector-curvature="0" />
                <polygon
                   points="222.41,298.696 224.121,299.177 225.216,295.162 223.501,294.696 "
                   id="polygon52" />
                <polygon
                   points="224.035,292.74 225.752,293.197 226.847,289.183 225.126,288.74 "
                   id="polygon54" />
              </g>
            </g>
          </g>
        </g>
      </g>
      <g
         id="g70"
         transform="matrix(1.0123048,0,0,0.99350157,-133.00169,-229.0193)">
        <path
           d="m 324.499,414.993 c 0,0 24,7 34,12"
           id="path66"
           inkscape:connector-curvature="0"
           style="fill:#5ca17d" />
        <path
           d="m 324.499,414.993 c 0,0 0.578,0.033 1.571,0.157 0.992,0.126 2.41,0.319 4.079,0.657 1.678,0.309 3.61,0.76 5.665,1.296 1.026,0.275 2.087,0.552 3.149,0.89 1.067,0.323 2.142,0.679 3.218,1.032 1.072,0.362 2.143,0.734 3.181,1.148 1.044,0.397 2.062,0.813 3.044,1.221 0.987,0.39 1.913,0.862 2.796,1.285 0.886,0.416 1.708,0.844 2.465,1.242 0.766,0.369 1.435,0.807 2.028,1.179 0.597,0.364 1.102,0.709 1.519,0.986 0.832,0.558 1.287,0.906 1.287,0.906 0,0 -0.574,-0.115 -1.541,-0.367 -0.978,-0.234 -2.31,-0.665 -3.943,-1.109 -1.648,-0.417 -3.503,-1.033 -5.526,-1.624 -2.024,-0.592 -4.135,-1.335 -6.274,-2.028 -2.128,-0.72 -4.236,-1.498 -6.214,-2.236 -0.989,-0.367 -1.932,-0.766 -2.831,-1.129 -0.904,-0.348 -1.748,-0.714 -2.527,-1.054 -1.56,-0.673 -2.845,-1.28 -3.742,-1.727 -0.899,-0.443 -1.404,-0.725 -1.404,-0.725 z"
           id="path68"
           inkscape:connector-curvature="0" />
      </g>
      <path
         stroke-miterlimit="10"
         d="m 70.976685,21.336166 c 0,0 173.104135,5.961006 288.506875,0.993485"
         id="path72"
         inkscape:connector-curvature="0"
         style="fill:#5ca17d;stroke:#000000;stroke-width:3.00857735;stroke-miterlimit:10" />
      <path
         stroke-miterlimit="10"
         d="m 68.952105,52.134699 c 0,0 2.02458,-23.844038 2.02458,-30.798533 0,0 98.193605,15.896009 288.506875,0.993485 l 2.02463,29.805048 c 0,0 -156.90726,17.883029 -292.556085,0 z"
         id="path74"
         inkscape:connector-curvature="0"
         style="fill:#5ca17d;stroke:#000000;stroke-width:3.00857735;stroke-miterlimit:10" />
      <line
         stroke-miterlimit="10"
         x1="215.73621"
         y1="61.076263"
         x2="213.71167"
         y2="189.23795"
         id="line76"
         style="fill:#5ca17d;stroke:#000000;stroke-width:3.00857735;stroke-miterlimit:10" />
      <g
         id="g82"
         transform="matrix(1.0123048,0,0,0.99350157,-133.00169,-229.0193)">
        <line
           x1="248.49899"
           y1="287.99301"
           x2="231.49899"
           y2="401.99301"
           id="line78"
           style="fill:#5ca17d" />
        <polygon
           points="231.499,401.993 247.015,287.772 249.982,288.214 "
           id="polygon80" />
      </g>
      <g
         id="g88"
         transform="matrix(1.0123048,0,0,0.99350157,-133.00169,-229.0193)">
        <line
           x1="436.49899"
           y1="287.99301"
           x2="453.49899"
           y2="402.99301"
           id="line84"
           style="fill:#5ca17d" />
        <polygon
           points="453.499,402.993 435.015,288.212 437.982,287.774 "
           id="polygon86" />
      </g>
      <path
         stroke-miterlimit="10"
         d="m 90.210501,55.115204 c 0,0 -21.258396,78.486656 -54.664459,106.304686"
         id="path90"
         inkscape:connector-curvature="0"
         style="fill:#5ca17d;stroke:#000000;stroke-width:3.00857735;stroke-miterlimit:10" />
      <g
         id="g152"
         transform="matrix(1.0123048,0,0,0.99350157,-133.00169,-229.0193)">
        <path
           d="m 518.499,398.993 c 0,0 -35,-13 -60,-112"
           id="path92"
           inkscape:connector-curvature="0"
           style="fill:#5ca17d" />
        <g
           id="g150">
          <g
             id="g148">
            <g
               id="g110">
              <g
                 id="g108">
                <path
                   d="m 515.372,396.215 -0.973,1.487 c 0,0 0.21,0.16 0.56,0.359 0.344,0.206 0.803,0.479 1.262,0.754 0.45,0.284 0.962,0.502 1.319,0.693 0.186,0.098 0.328,0.155 0.428,0.198 0.101,0.043 0.158,0.067 0.158,0.067 l 0.766,-1.604 c 0,0 -0.062,-0.026 -0.17,-0.073 -0.109,-0.046 -0.269,-0.112 -0.426,-0.197 -0.327,-0.178 -0.775,-0.363 -1.204,-0.635 -0.432,-0.258 -0.864,-0.516 -1.188,-0.709 -0.329,-0.185 -0.532,-0.34 -0.532,-0.34 z"
                   id="path94"
                   inkscape:connector-curvature="0" />
                <path
                   d="m 510.549,392.539 -1.158,1.348 c 0,0 0.818,0.666 1.637,1.332 0.41,0.332 0.82,0.664 1.128,0.913 0.326,0.229 0.543,0.38 0.543,0.38 l 1.045,-1.437 c 0,0 -0.208,-0.146 -0.521,-0.364 -0.297,-0.241 -0.694,-0.563 -1.09,-0.884 -0.792,-0.644 -1.584,-1.288 -1.584,-1.288 z"
                   id="path96"
                   inkscape:connector-curvature="0" />
                <path
                   d="m 506.124,388.337 -1.273,1.239 c -0.063,0.059 3.019,2.924 3.019,2.924 l 1.199,-1.312 c 0,0.001 -3.003,-2.789 -2.945,-2.851 z"
                   id="path98"
                   inkscape:connector-curvature="0" />
                <path
                   d="m 502.026,383.79 -1.356,1.148 c 0,0 0.165,0.203 0.412,0.508 0.24,0.311 0.58,0.709 0.945,1.086 0.713,0.769 1.426,1.538 1.426,1.538 l 1.302,-1.209 c 0,0 -0.699,-0.753 -1.397,-1.506 -0.358,-0.369 -0.691,-0.76 -0.927,-1.066 -0.243,-0.299 -0.405,-0.499 -0.405,-0.499 z"
                   id="path100"
                   inkscape:connector-curvature="0" />
                <path
                   d="m 498.198,378.999 -1.421,1.067 c 0,0 0.152,0.213 0.379,0.533 0.247,0.306 0.575,0.713 0.904,1.121 0.66,0.813 1.319,1.627 1.319,1.627 l 1.378,-1.122 c 0,0 -0.649,-0.799 -1.297,-1.599 -0.323,-0.4 -0.646,-0.801 -0.889,-1.102 -0.224,-0.315 -0.373,-0.525 -0.373,-0.525 z"
                   id="path102"
                   inkscape:connector-curvature="0" />
                <polygon
                   points="495.591,378.397 497.028,377.353 494.639,373.991 493.168,374.989 "
                   id="polygon104" />
                <polygon
                   points="492.035,373.289 493.52,372.313 491.335,368.809 489.825,369.744 "
                   id="polygon106" />
              </g>
            </g>
            <g
               id="g128">
              <g
                 id="g126">
                <path
                   d="m 488.189,363.522 -1.544,0.878 c 0,0 0.5,0.916 1.001,1.831 0.548,0.889 1.097,1.777 1.097,1.777 l 1.523,-0.916 c 0,0 -0.542,-0.878 -1.085,-1.757 -0.496,-0.906 -0.992,-1.813 -0.992,-1.813 z"
                   id="path112"
                   inkscape:connector-curvature="0" />
                <polygon
                   points="485.665,362.609 487.218,361.748 485.234,358.121 483.662,358.948 "
                   id="polygon114" />
                <polygon
                   points="482.686,357.155 484.268,356.345 482.479,352.614 480.883,353.395 "
                   id="polygon116" />
                <polygon
                   points="480,351.554 481.604,350.787 479.815,347.057 478.198,347.794 "
                   id="polygon118" />
                <polygon
                   points="477.35,345.94 478.973,345.216 477.372,341.398 475.738,342.097 "
                   id="polygon120" />
                <polygon
                   points="474.949,340.215 476.588,339.529 474.987,335.711 473.338,336.372 "
                   id="polygon122" />
                <polygon
                   points="472.55,334.492 474.204,333.843 472.779,329.954 471.117,330.582 "
                   id="polygon124" />
              </g>
            </g>
            <g
               id="g146">
              <g
                 id="g144">
                <polygon
                   points="470.417,328.667 472.083,328.049 470.661,324.158 468.987,324.754 "
                   id="polygon130" />
                <path
                   d="m 468.613,318.339 -1.685,0.566 c 0,0 0.298,0.998 0.646,1.979 0.357,0.979 0.714,1.957 0.714,1.957 l 1.678,-0.586 c 0,0 -0.355,-0.973 -0.711,-1.945 -0.346,-0.977 -0.643,-1.971 -0.642,-1.971 z"
                   id="path132"
                   inkscape:connector-curvature="0" />
                <polygon
                   points="466.313,316.963 468,316.406 466.749,312.455 465.056,312.995 "
                   id="polygon134" />
                <polygon
                   points="464.44,311.051 466.136,310.521 464.885,306.571 463.183,307.083 "
                   id="polygon136" />
                <path
                   d="m 463.167,300.642 -1.708,0.488 c 0,0 0.274,1.003 0.548,2.007 0.137,0.502 0.274,1.004 0.376,1.38 0.098,0.378 0.185,0.624 0.185,0.624 l 1.704,-0.503 c 0,0 -0.086,-0.245 -0.184,-0.621 -0.103,-0.375 -0.239,-0.875 -0.375,-1.375 -0.273,-1 -0.546,-2 -0.546,-2 z"
                   id="path138"
                   inkscape:connector-curvature="0" />
                <polygon
                   points="460.923,299.164 462.633,298.683 461.542,294.684 459.828,295.149 "
                   id="polygon140" />
                <polygon
                   points="459.292,293.185 461.009,292.727 459.917,288.728 458.197,289.17 "
                   id="polygon142" />
              </g>
            </g>
          </g>
        </g>
      </g>
      <path
         stroke-miterlimit="10"
         d="m 337.21287,55.115204 c 0,0 21.2584,78.486656 54.66446,106.304686"
         id="path154"
         inkscape:connector-curvature="0"
         style="fill:#5ca17d;stroke:#000000;stroke-width:3.00857735;stroke-miterlimit:10" />
      <g
         id="g234"
         transform="matrix(1.0123048,0,0,0.99350157,-133.00169,-229.0193)">
        <path
           d="m 153.499,479.993 c 0,0 36,23 176,4"
           id="path156"
           inkscape:connector-curvature="0"
           style="fill:#5ca17d" />
        <g
           id="g232">
          <g
             id="g230">
            <g
               id="g174">
              <g
                 id="g172">
                <path
                   d="m 157,482.664 0.674,-1.645 c 0,0 -0.959,-0.413 -1.918,-0.827 -0.46,-0.23 -0.92,-0.461 -1.265,-0.634 -0.337,-0.175 -0.527,-0.294 -0.527,-0.294 l -0.957,1.497 c 0,10e-4 0.264,0.165 0.638,0.359 0.37,0.186 0.864,0.433 1.357,0.681 0.999,0.431 1.998,0.863 1.998,0.863 z"
                   id="path158"
                   inkscape:connector-curvature="0" />
                <path
                   d="m 163.07,484.777 0.525,-1.698 c 0,0 -1.01,-0.307 -2.021,-0.612 -0.988,-0.36 -1.977,-0.721 -1.977,-0.721 l -0.617,1.666 c 0,0 1.015,0.37 2.03,0.739 1.031,0.313 2.06,0.626 2.06,0.626 z"
                   id="path160"
                   inkscape:connector-curvature="0" />
                <path
                   d="m 169.245,486.46 0.424,-1.725 c 0,0 -1.027,-0.255 -2.055,-0.509 -0.513,-0.13 -1.03,-0.246 -1.411,-0.356 -0.379,-0.114 -0.631,-0.191 -0.631,-0.191 l -0.487,1.709 c 0,0 0.257,0.078 0.644,0.195 0.387,0.112 0.911,0.229 1.431,0.362 1.043,0.257 2.085,0.515 2.085,0.515 z"
                   id="path162"
                   inkscape:connector-curvature="0" />
                <path
                   d="m 175.485,487.828 0.348,-1.742 c 0,0 -1.04,-0.204 -2.08,-0.408 -0.52,-0.104 -1.042,-0.196 -1.429,-0.286 -0.385,-0.096 -0.642,-0.159 -0.642,-0.159 l -0.396,1.732 c 0,0 0.26,0.064 0.651,0.161 0.392,0.091 0.919,0.184 1.445,0.29 1.051,0.206 2.103,0.412 2.103,0.412 z"
                   id="path164"
                   inkscape:connector-curvature="0" />
                <path
                   d="m 181.764,488.963 0.285,-1.754 c 0,0 -1.049,-0.158 -2.099,-0.315 -1.04,-0.204 -2.081,-0.408 -2.081,-0.408 l -0.326,1.746 c 0,0 1.052,0.206 2.104,0.413 1.058,0.159 2.117,0.318 2.117,0.318 z"
                   id="path166"
                   inkscape:connector-curvature="0" />
                <polygon
                   points="184.104,487.515 183.837,489.271 188.072,489.902 188.303,488.141 "
                   id="polygon168" />
                <polygon
                   points="190.365,488.394 190.149,490.157 194.402,490.606 194.59,488.84 "
                   id="polygon170" />
              </g>
            </g>
            <g
               id="g192">
              <g
                 id="g190">
                <path
                   d="m 200.743,491.234 0.146,-1.771 c 0,0 -1.062,-0.054 -2.117,-0.182 -1.057,-0.112 -2.113,-0.224 -2.113,-0.224 l -0.173,1.769 c 0,0 1.063,0.112 2.127,0.225 1.062,0.13 2.13,0.183 2.13,0.183 z"
                   id="path176"
                   inkscape:connector-curvature="0" />
                <polygon
                   points="202.964,489.6 202.83,491.371 207.096,491.651 207.207,489.878 "
                   id="polygon178" />
                <path
                   d="m 213.45,492.023 0.078,-1.775 c 0,0 -1.064,-0.008 -2.124,-0.095 -1.061,-0.069 -2.122,-0.14 -2.122,-0.14 l -0.1,1.774 c 0,0 1.067,0.07 2.133,0.14 1.066,0.088 2.135,0.096 2.135,0.096 z"
                   id="path180"
                   inkscape:connector-curvature="0" />
                <polygon
                   points="215.609,490.307 215.541,492.082 219.811,492.204 219.861,490.428 "
                   id="polygon182" />
                <polygon
                   points="221.941,490.486 221.901,492.263 226.172,492.384 226.194,490.607 "
                   id="polygon184" />
                <polygon
                   points="228.277,490.61 228.263,492.387 232.534,492.36 232.532,490.584 "
                   id="polygon186" />
                <polygon
                   points="234.614,490.571 234.623,492.348 238.893,492.321 238.868,490.545 "
                   id="polygon188" />
              </g>
            </g>
            <g
               id="g210">
              <g
                 id="g208">
                <path
                   d="m 245.253,492.208 -0.047,-1.776 c 0,0 -1.063,0.041 -2.126,0.082 -1.064,0.009 -2.128,0.019 -2.128,0.019 l 0.033,1.776 c 0,0 1.067,-0.01 2.135,-0.019 1.066,-0.041 2.133,-0.082 2.133,-0.082 z"
                   id="path194"
                   inkscape:connector-curvature="0" />
                <polygon
                   points="247.288,490.352 247.34,492.128 251.607,491.964 251.542,490.188 "
                   id="polygon196" />
                <polygon
                   points="253.622,490.108 253.694,491.884 257.961,491.72 257.876,489.945 "
                   id="polygon198" />
                <path
                   d="m 264.31,491.386 -0.103,-1.774 c 0,0 -1.062,0.073 -2.124,0.146 -1.062,0.087 -2.125,0.107 -2.125,0.107 l 0.091,1.774 c 0,0 1.067,-0.021 2.131,-0.108 1.066,-0.072 2.13,-0.145 2.13,-0.145 z"
                   id="path200"
                   inkscape:connector-curvature="0" />
                <polygon
                   points="266.286,489.47 266.394,491.243 270.652,490.951 270.534,489.178 "
                   id="polygon202" />
                <polygon
                   points="272.613,489.035 272.737,490.809 276.996,490.517 276.861,488.744 "
                   id="polygon204" />
                <path
                   d="m 283.333,490.039 -0.149,-1.771 c 0,0 -1.059,0.119 -2.121,0.188 -1.062,0.072 -2.124,0.146 -2.124,0.146 l 0.14,1.771 c 0,0 1.064,-0.072 2.129,-0.146 1.064,-0.068 2.125,-0.188 2.125,-0.188 z"
                   id="path206"
                   inkscape:connector-curvature="0" />
              </g>
            </g>
            <g
               id="g228">
              <g
                 id="g226">
                <polygon
                   points="285.258,488.067 285.412,489.838 289.66,489.427 289.497,487.657 "
                   id="polygon212" />
                <polygon
                   points="291.571,487.457 291.739,489.226 295.987,488.815 295.811,487.047 "
                   id="polygon214" />
                <polygon
                   points="297.884,486.847 298.064,488.614 302.313,488.203 302.123,486.437 "
                   id="polygon216" />
                <polygon
                   points="304.198,486.235 304.392,488.002 308.627,487.484 308.425,485.719 "
                   id="polygon218" />
                <polygon
                   points="310.494,485.464 310.699,487.229 314.934,486.707 314.721,484.943 "
                   id="polygon220" />
                <polygon
                   points="316.791,484.688 317.007,486.452 321.242,485.93 321.018,484.167 "
                   id="polygon222" />
                <polygon
                   points="323.086,483.912 323.313,485.675 327.548,485.153 327.313,483.392 "
                   id="polygon224" />
              </g>
            </g>
          </g>
        </g>
      </g>
      <g
         id="g350"
         transform="matrix(1.0123048,0,0,0.99350157,-133.00169,-229.0193)">
        <path
           d="m 199.499,277.993 c 0,0 121,19 288,0"
           id="path236"
           inkscape:connector-curvature="0"
           style="fill:#5ca17d" />
        <g
           id="g348">
          <g
             id="g346">
            <g
               id="g254">
              <g
                 id="g252">
                <polygon
                   points="199.633,277.139 199.357,278.895 203.945,279.544 204.184,277.784 "
                   id="polygon238" />
                <polygon
                   points="206.418,278.077 206.189,279.839 210.775,280.417 210.99,278.652 "
                   id="polygon240" />
                <polygon
                   points="213.229,278.917 213.021,280.681 217.613,281.2 217.809,279.434 "
                   id="polygon242" />
                <polygon
                   points="220.052,279.687 219.861,281.453 224.456,281.923 224.637,280.156 "
                   id="polygon244" />
                <polygon
                   points="226.881,280.378 226.706,282.146 231.303,282.603 231.469,280.833 "
                   id="polygon246" />
                <polygon
                   points="233.717,281.042 233.555,282.812 238.158,283.203 238.311,281.433 "
                   id="polygon248" />
                <polygon
                   points="240.558,281.624 240.409,283.394 245.011,283.785 245.151,282.013 "
                   id="polygon250" />
              </g>
            </g>
            <g
               id="g272">
              <g
                 id="g270">
                <polygon
                   points="247.402,282.193 247.265,283.965 251.873,284.288 252.002,282.515 "
                   id="polygon256" />
                <polygon
                   points="254.252,282.673 254.127,284.445 258.735,284.768 258.853,282.995 "
                   id="polygon258" />
                <path
                   d="m 265.6,285.202 0.106,-1.773 c 0,0 -1.151,-0.063 -2.303,-0.125 -1.15,-0.075 -2.301,-0.15 -2.301,-0.15 l -0.113,1.773 c 0,0 1.152,0.076 2.304,0.151 1.154,0.061 2.307,0.124 2.307,0.124 z"
                   id="path260"
                   inkscape:connector-curvature="0" />
                <polygon
                   points="267.96,283.551 267.857,285.325 272.469,285.575 272.564,283.801 "
                   id="polygon262" />
                <polygon
                   points="274.817,283.923 274.725,285.698 279.337,285.949 279.422,284.174 "
                   id="polygon264" />
                <polygon
                   points="281.677,284.284 281.596,286.059 286.21,286.234 286.285,284.459 "
                   id="polygon266" />
                <polygon
                   points="288.539,284.545 288.468,286.32 293.082,286.496 293.146,284.72 "
                   id="polygon268" />
              </g>
            </g>
            <g
               id="g290">
              <g
                 id="g288">
                <polygon
                   points="295.403,284.806 295.342,286.582 299.957,286.757 300.011,284.981 "
                   id="polygon274" />
                <polygon
                   points="302.267,285.045 302.215,286.822 306.833,286.918 306.877,285.142 "
                   id="polygon276" />
                <polygon
                   points="309.133,285.189 309.092,286.965 313.709,287.062 313.744,285.285 "
                   id="polygon278" />
                <polygon
                   points="316.001,285.333 315.97,287.109 320.586,287.206 320.611,285.429 "
                   id="polygon280" />
                <polygon
                   points="322.867,285.476 322.845,287.252 327.464,287.269 327.479,285.492 "
                   id="polygon282" />
                <polygon
                   points="329.737,285.499 329.725,287.275 334.343,287.289 334.349,285.512 "
                   id="polygon284" />
                <polygon
                   points="336.604,285.519 336.602,287.295 341.219,287.309 341.215,285.532 "
                   id="polygon286" />
              </g>
            </g>
            <g
               id="g308">
              <g
                 id="g306">
                <path
                   d="m 348.098,287.303 -0.013,-1.777 c 0,0 -1.153,0.033 -2.306,0.02 -1.153,-0.003 -2.306,-0.007 -2.306,-0.007 l 0.006,1.777 c 0,0 1.155,0.003 2.309,0.007 1.156,0.012 2.31,-0.02 2.31,-0.02 z"
                   id="path292"
                   inkscape:connector-curvature="0" />
                <polygon
                   points="350.341,285.49 350.357,287.267 354.975,287.193 354.953,285.417 "
                   id="polygon294" />
                <polygon
                   points="357.208,285.381 357.234,287.157 361.852,287.084 361.82,285.307 "
                   id="polygon296" />
                <polygon
                   points="364.078,285.271 364.112,287.048 368.729,286.974 368.688,285.198 "
                   id="polygon298" />
                <path
                   d="m 375.604,286.795 -0.05,-1.776 c 0,0 -1.152,0.041 -2.305,0.083 -1.152,0.05 -2.305,0.061 -2.305,0.061 l 0.044,1.776 c 0,0 1.155,-0.011 2.309,-0.062 1.154,-0.041 2.307,-0.082 2.307,-0.082 z"
                   id="path300"
                   inkscape:connector-curvature="0" />
                <polygon
                   points="377.811,284.938 377.864,286.714 382.479,286.549 382.419,284.773 "
                   id="polygon302" />
                <polygon
                   points="384.674,284.692 384.736,286.468 389.351,286.303 389.282,284.528 "
                   id="polygon304" />
              </g>
            </g>
            <g
               id="g326">
              <g
                 id="g324">
                <polygon
                   points="391.539,284.447 391.61,286.223 396.226,286.058 396.148,284.282 "
                   id="polygon310" />
                <path
                   d="m 403.095,285.726 -0.087,-1.775 c 0,0 -1.151,0.065 -2.302,0.13 -1.151,0.061 -2.303,0.121 -2.303,0.121 l 0.081,1.775 c 0,0 1.153,-0.061 2.306,-0.121 1.152,-0.065 2.305,-0.13 2.305,-0.13 z"
                   id="path312"
                   inkscape:connector-curvature="0" />
                <polygon
                   points="405.26,283.823 405.351,285.598 409.961,285.337 409.865,283.563 "
                   id="polygon314" />
                <polygon
                   points="412.12,283.435 412.219,285.209 416.829,284.948 416.723,283.174 "
                   id="polygon316" />
                <polygon
                   points="418.976,283.047 419.084,284.82 423.695,284.56 423.581,282.786 "
                   id="polygon318" />
                <path
                   d="m 430.559,284.098 -0.124,-1.772 c 0,0 -1.149,0.09 -2.299,0.181 -1.148,0.102 -2.3,0.153 -2.3,0.153 l 0.118,1.773 c 0,0 1.153,-0.052 2.304,-0.153 1.15,-0.092 2.301,-0.182 2.301,-0.182 z"
                   id="path320"
                   inkscape:connector-curvature="0" />
                <polygon
                   points="432.684,282.148 432.811,283.921 437.414,283.559 437.281,281.787 "
                   id="polygon322" />
              </g>
            </g>
            <g
               id="g344">
              <g
                 id="g342">
                <polygon
                   points="439.532,281.61 439.668,283.382 444.272,283.02 444.129,281.249 "
                   id="polygon328" />
                <polygon
                   points="446.379,281.072 446.524,282.843 451.128,282.481 450.977,280.71 "
                   id="polygon330" />
                <path
                   d="m 457.982,281.916 -0.161,-1.77 c 0,0 -1.146,0.127 -2.297,0.207 -1.149,0.09 -2.299,0.181 -2.299,0.181 l 0.154,1.77 c 0,0 1.151,-0.09 2.302,-0.181 1.153,-0.08 2.301,-0.207 2.301,-0.207 z"
                   id="path332"
                   inkscape:connector-curvature="0" />
                <polygon
                   points="460.068,279.917 460.231,281.687 464.825,281.219 464.655,279.45 "
                   id="polygon334" />
                <polygon
                   points="466.9,279.222 467.073,280.99 471.668,280.522 471.488,278.754 "
                   id="polygon336" />
                <polygon
                   points="473.735,278.526 473.917,280.293 478.511,279.825 478.323,278.059 "
                   id="polygon338" />
                <polygon
                   points="480.567,277.83 480.759,279.597 485.353,279.129 485.154,277.363 "
                   id="polygon340" />
              </g>
            </g>
          </g>
        </g>
      </g>
      <g
         id="g430"
         transform="matrix(1.0123048,0,0,0.99350157,-133.00169,-229.0193)">
        <path
           d="m 356.499,485.993 c 0,0 99,15 174,-3"
           id="path352"
           inkscape:connector-curvature="0"
           style="fill:#5ca17d" />
        <g
           id="g428">
          <g
             id="g426">
            <g
               id="g370">
              <g
                 id="g368">
                <polygon
                   points="356.628,485.139 356.362,486.896 360.533,487.474 360.766,485.712 "
                   id="polygon354" />
                <polygon
                   points="362.798,485.97 362.573,487.732 366.744,488.247 366.953,486.482 "
                   id="polygon356" />
                <polygon
                   points="368.989,486.714 368.786,488.479 372.959,488.954 373.15,487.188 "
                   id="polygon358" />
                <polygon
                   points="375.19,487.394 375.005,489.161 379.184,489.582 379.356,487.813 "
                   id="polygon360" />
                <polygon
                   points="381.396,488.019 381.228,489.787 385.412,490.155 385.568,488.386 "
                   id="polygon362" />
                <polygon
                   points="387.611,488.563 387.46,490.333 391.644,490.694 391.784,488.923 "
                   id="polygon364" />
                <polygon
                   points="393.828,489.068 393.693,490.841 397.882,491.137 398.006,489.364 "
                   id="polygon366" />
              </g>
            </g>
            <g
               id="g388">
              <g
                 id="g386">
                <path
                   d="m 404.124,491.559 0.107,-1.774 c 0,0 -1.046,-0.046 -2.09,-0.128 -1.044,-0.073 -2.089,-0.147 -2.089,-0.147 l -0.119,1.772 c 0,0 1.047,0.074 2.095,0.148 1.046,0.082 2.096,0.129 2.096,0.129 z"
                   id="path372"
                   inkscape:connector-curvature="0" />
                <polygon
                   points="406.278,489.894 406.175,491.667 410.37,491.891 410.46,490.116 "
                   id="polygon374" />
                <path
                   d="m 416.616,492.198 0.074,-1.775 c 0,0 -1.047,-0.021 -2.092,-0.087 -1.046,-0.055 -2.091,-0.111 -2.091,-0.111 L 412.421,492 c 0,0 1.048,0.056 2.097,0.111 1.048,0.066 2.098,0.087 2.098,0.087 z"
                   id="path376"
                   inkscape:connector-curvature="0" />
                <polygon
                   points="418.74,490.492 418.671,492.268 422.868,492.409 422.925,490.633 "
                   id="polygon378" />
                <path
                   d="m 429.12,492.607 0.04,-1.776 c 0,0 -1.047,-0.018 -2.093,-0.059 -1.046,-0.035 -2.093,-0.07 -2.093,-0.07 l -0.052,1.776 c 0,0 1.05,0.035 2.099,0.07 1.049,0.042 2.099,0.059 2.099,0.059 z"
                   id="path380"
                   inkscape:connector-curvature="0" />
                <polygon
                   points="431.21,490.855 431.177,492.632 435.376,492.682 435.397,490.904 "
                   id="polygon382" />
                <polygon
                   points="437.446,490.929 437.431,492.705 441.63,492.755 441.633,490.979 "
                   id="polygon384" />
              </g>
            </g>
            <g
               id="g406">
              <g
                 id="g404">
                <polygon
                   points="443.683,490.973 443.687,492.75 447.888,492.695 447.871,490.918 "
                   id="polygon390" />
                <polygon
                   points="449.919,490.892 449.943,492.668 454.144,492.613 454.106,490.837 "
                   id="polygon392" />
                <path
                   d="m 460.398,492.435 -0.06,-1.776 c 0,0 -1.046,0.043 -2.092,0.087 -1.045,0.053 -2.092,0.065 -2.092,0.065 l 0.045,1.776 c 0,0 1.05,-0.013 2.1,-0.066 1.049,-0.043 2.099,-0.086 2.099,-0.086 z"
                   id="path394"
                   inkscape:connector-curvature="0" />
                <polygon
                   points="462.386,490.574 462.454,492.35 466.651,492.176 466.569,490.401 "
                   id="polygon396" />
                <path
                   d="m 472.902,491.88 -0.105,-1.773 c 0,0 -1.042,0.096 -2.089,0.124 -1.046,0.043 -2.092,0.086 -2.092,0.086 l 0.09,1.775 c 0,0 1.05,-0.044 2.099,-0.087 1.049,-0.028 2.097,-0.125 2.097,-0.125 z"
                   id="path398"
                   inkscape:connector-curvature="0" />
                <polygon
                   points="474.84,489.955 474.954,491.729 479.145,491.419 479.014,489.646 "
                   id="polygon400" />
                <polygon
                   points="481.056,489.496 481.196,491.268 485.386,490.958 485.229,489.188 "
                   id="polygon402" />
              </g>
            </g>
            <g
               id="g424">
              <g
                 id="g422">
                <polygon
                   points="487.27,489.009 487.436,490.777 491.615,490.312 491.429,488.544 "
                   id="polygon408" />
                <polygon
                   points="493.463,488.316 493.659,490.083 497.838,489.616 497.622,487.853 "
                   id="polygon410" />
                <path
                   d="m 504.047,488.813 -0.248,-1.759 c 0,0 -1.033,0.161 -2.066,0.322 -1.035,0.147 -2.077,0.248 -2.077,0.248 l 0.226,1.763 c 0,0 1.046,-0.101 2.087,-0.249 1.039,-0.161 2.078,-0.325 2.078,-0.325 z"
                   id="path412"
                   inkscape:connector-curvature="0" />
                <polygon
                   points="505.823,486.738 506.082,488.496 510.237,487.847 509.954,486.092 "
                   id="polygon414" />
                <polygon
                   points="511.976,485.776 512.27,487.528 516.425,486.875 516.108,485.127 "
                   id="polygon416" />
                <polygon
                   points="518.111,484.707 518.442,486.452 522.562,485.589 522.202,483.849 "
                   id="polygon418" />
                <polygon
                   points="524.203,483.43 524.576,485.167 528.695,484.304 528.294,482.572 "
                   id="polygon420" />
              </g>
            </g>
          </g>
        </g>
      </g>
      <polygon
         stroke-miterlimit="10"
         points="426.811,289.062 424.199,256.105 410.196,257.063 413.798,289.881 "
         id="polygon432"
         style="fill:#5ca17d;stroke:#000000;stroke-width:3;stroke-miterlimit:10"
         transform="matrix(1.0123048,0,0,0.99350157,-133.00169,-229.0193)" />
      <polygon
         stroke-miterlimit="10"
         points="268.499,290.993 270.499,257.993 256.499,256.993 255.499,289.993 "
         id="polygon434"
         style="fill:#5ca17d;stroke:#000000;stroke-width:3;stroke-miterlimit:10"
         transform="matrix(1.0123048,0,0,0.99350157,-133.00169,-229.0193)" />
      <line
         stroke-miterlimit="10"
         x1="264.32687"
         y1="28.290724"
         x2="266.35153"
         y2="59.089283"
         id="line436"
         style="fill:#5ca17d;stroke:#000000;stroke-width:3.00857735;stroke-miterlimit:10" />
      <line
         stroke-miterlimit="10"
         x1="228.89626"
         y1="43.193249"
         x2="257.24075"
         y2="43.193249"
         id="line438"
         style="fill:#5ca17d;stroke:#000000;stroke-width:3.00857735;stroke-miterlimit:10" />
      <ellipse
         stroke-miterlimit="10"
         cx="248.12999"
         cy="43.193249"
         rx="9.1107426"
         ry="8.4447641"
         id="ellipse440"
         style="fill:#5ca17d;stroke:#000000;stroke-width:2.00571823;stroke-miterlimit:10" />
      <ellipse
         stroke-miterlimit="10"
         cx="247.62381"
         cy="43.193249"
         rx="3.543067"
         ry="3.9740059"
         id="ellipse442"
         style="fill:#5ca17d;stroke:#000000;stroke-width:2.00571823;stroke-miterlimit:10" />
      <g
         id="g504"
         transform="matrix(1.0123048,0,0,0.99350157,-133.00169,-229.0193)">
        <path
           d="m 371.499,291.993 v 71 c -2,50 -28,41 -28,41"
           id="path444"
           inkscape:connector-curvature="0"
           style="fill:#5ca17d" />
        <g
           id="g502">
          <g
             id="g500">
            <g
               id="g462">
              <g
                 id="g460">
                <rect
                   x="370.586"
                   y="291.992"
                   width="1.777"
                   height="4.1020002"
                   id="rect446" />
                <polygon
                   points="372.363,298.102 370.586,298.099 370.586,302.199 372.363,302.204 "
                   id="polygon448" />
                <polygon
                   points="372.363,304.21 370.586,304.204 370.586,308.304 372.363,308.312 "
                   id="polygon450" />
                <polygon
                   points="372.363,310.32 370.586,310.311 370.586,314.41 372.363,314.421 "
                   id="polygon452" />
                <polygon
                   points="372.363,316.428 370.586,316.416 370.586,320.516 372.363,320.53 "
                   id="polygon454" />
                <polygon
                   points="372.363,322.538 370.586,322.523 370.586,326.622 372.363,326.64 "
                   id="polygon456" />
                <polygon
                   points="372.363,328.646 370.586,328.627 370.586,332.727 372.363,332.747 "
                   id="polygon458" />
              </g>
            </g>
            <g
               id="g480">
              <g
                 id="g478">
                <polygon
                   points="372.363,334.755 370.586,334.733 370.586,338.833 372.363,338.857 "
                   id="polygon464" />
                <polygon
                   points="372.363,340.864 370.586,340.839 370.586,344.939 372.363,344.965 "
                   id="polygon466" />
                <polygon
                   points="372.363,346.972 370.586,346.944 370.586,351.044 372.363,351.074 "
                   id="polygon468" />
                <polygon
                   points="372.363,353.082 370.586,353.051 370.586,357.15 372.363,357.183 "
                   id="polygon470" />
                <path
                   d="m 370.57,363.252 1.776,0.042 c 0,0 0.022,-0.26 0.016,-0.643 0,-0.385 0,-0.897 0,-1.41 0,-1.025 0,-2.051 0,-2.051 l -1.777,-0.034 c 0,0 0,1.025 0,2.05 0,0.513 0,1.025 0,1.409 0.008,0.386 -0.015,0.637 -0.015,0.637 z"
                   id="path472"
                   inkscape:connector-curvature="0" />
                <path
                   d="m 370.161,369.284 1.77,0.162 c 0,0 0.092,-1.029 0.184,-2.058 0.059,-1.034 0.117,-2.068 0.117,-2.068 l -1.774,-0.084 c 0,0 -0.058,1.012 -0.115,2.025 -0.091,1.011 -0.182,2.023 -0.182,2.023 z"
                   id="path474"
                   inkscape:connector-curvature="0" />
                <path
                   d="m 369.459,375.293 1.756,0.267 c 0,0 0.136,-1.025 0.271,-2.051 0.068,-0.513 0.135,-1.025 0.186,-1.41 0.056,-0.384 0.072,-0.642 0.072,-0.642 l -1.767,-0.192 c 0,0 -0.016,0.254 -0.07,0.631 -0.05,0.377 -0.116,0.881 -0.183,1.384 -0.132,1.007 -0.265,2.013 -0.265,2.013 z"
                   id="path476"
                   inkscape:connector-curvature="0" />
              </g>
            </g>
            <g
               id="g498">
              <g
                 id="g496">
                <path
                   d="m 368.315,381.219 1.73,0.405 c 0,0 0.226,-1.013 0.452,-2.026 0.208,-1.016 0.373,-2.039 0.373,-2.039 l -1.75,-0.31 c 0,0 -0.161,1.002 -0.365,1.994 -0.219,0.988 -0.44,1.976 -0.44,1.976 z"
                   id="path482"
                   inkscape:connector-curvature="0" />
                <path
                   d="m 366.656,386.991 1.677,0.588 c 0,0 0.332,-0.989 0.664,-1.978 0.277,-1.002 0.555,-2.005 0.555,-2.005 l -1.716,-0.46 c 0,0 -0.269,0.973 -0.538,1.946 -0.321,0.955 -0.642,1.909 -0.642,1.909 z"
                   id="path484"
                   inkscape:connector-curvature="0" />
                <path
                   d="m 364.306,392.471 1.57,0.832 c 0,0 0.135,-0.227 0.298,-0.584 0.169,-0.355 0.396,-0.828 0.622,-1.302 0.238,-0.469 0.431,-0.955 0.575,-1.319 0.146,-0.364 0.244,-0.606 0.244,-0.606 l -1.649,-0.661 c 0,0 -0.094,0.233 -0.234,0.582 -0.138,0.351 -0.323,0.817 -0.55,1.263 -0.216,0.451 -0.432,0.902 -0.593,1.24 -0.156,0.341 -0.284,0.555 -0.283,0.555 z"
                   id="path486"
                   inkscape:connector-curvature="0" />
                <path
                   d="m 361.036,397.379 1.354,1.151 c 0,0 0.652,-0.836 1.304,-1.672 0.584,-0.88 1.168,-1.761 1.168,-1.761 l -1.515,-0.928 c 0,0 -0.548,0.826 -1.097,1.652 -0.607,0.78 -1.214,1.558 -1.214,1.558 z"
                   id="path488"
                   inkscape:connector-curvature="0" />
                <path
                   d="m 356.668,401.207 0.947,1.503 c 0,0 0.922,-0.557 1.746,-1.245 0.435,-0.317 0.819,-0.688 1.114,-0.959 0.294,-0.272 0.49,-0.454 0.49,-0.454 l -1.244,-1.269 c 0,0 -0.18,0.166 -0.45,0.415 -0.27,0.25 -0.622,0.591 -1.018,0.877 -0.75,0.629 -1.585,1.132 -1.585,1.132 z"
                   id="path490"
                   inkscape:connector-curvature="0" />
                <path
                   d="m 351.343,403.368 0.359,1.74 c 0,0 1.06,-0.211 2.077,-0.566 0.514,-0.166 1.016,-0.359 1.381,-0.534 0.37,-0.162 0.617,-0.27 0.617,-0.27 l -0.768,-1.603 c 0,0 -0.222,0.097 -0.556,0.243 -0.329,0.158 -0.781,0.332 -1.243,0.48 -0.914,0.32 -1.867,0.51 -1.867,0.51 z"
                   id="path492"
                   inkscape:connector-curvature="0" />
                <path
                   d="m 345.593,403.526 -0.266,1.757 c 0,0 1.067,0.172 2.143,0.194 1.076,0.034 2.149,-0.059 2.149,-0.059 l -0.153,-1.77 c 0,0 -0.969,0.082 -1.941,0.053 -0.974,-0.02 -1.932,-0.175 -1.932,-0.175 z"
                   id="path494"
                   inkscape:connector-curvature="0" />
              </g>
            </g>
          </g>
        </g>
      </g>
    </g>
  </g>
</svg>
